#Comment line ignore any data following # character 
#Hierarchical Translation and Rotation (.htr) file 
[Header]	
#Header keywords are followed by a single value 
FileType HTR		#Single word string
DataType HTRS		#Translation followed by rotation and scale data
FileVersion 1		#integer
NumSegments 29		#integer
NumFrames 5		#integer
DataFrameRate 30		#integer, data frame rate in this file
EulerRotationOrder ZYX
CalibrationUnits mm
RotationUnits Degrees
GlobalAxisofGravity Y
BoneLengthAxis Y
ScaleFactor 1.00
[SegmentNames&Hierarchy]
#CHILD	PARENT
MASTER GLOBAL
weapon MASTER
back_slider weapon
front_bottom weapon
front_middle_part1 weapon
front_middle_part2 weapon
front_middle_part3 weapon
front_middle_part4 weapon
front_top weapon
wing_bottom_left weapon
wing_bottom_right weapon
wing_top_left weapon
wing_top_right weapon
front_bottom_rumble_left front_bottom
front_bottom_rumble_right front_bottom
back_rotate_bottom_left front_middle_part3
back_rotate_bottom_right front_middle_part3
back_rotate_top_left front_middle_part3
back_rotate_top_right front_middle_part3
front_middle_part3_left front_middle_part3
front_middle_part3_right front_middle_part3
wing_bottom_left_buckets_1 wing_bottom_left
wing_bottom_left_buckets_2 wing_bottom_left
wing_bottom_left_buckets_3 wing_bottom_left
wing_bottom_right_buckets wing_bottom_right
wing_top_left_buckets wing_top_left
wing_top_left_buckets_1 wing_top_left
wing_top_left_buckets_3 wing_top_left
wing_top_right_buckets wing_top_right
[BasePosition]
#SegmentName Tx, Ty, Tz, Rx, Ry, Rz, BoneLength
MASTER 0.000000 0.000000 0.000000 -90.000000 0.000000 0.000000 10.000000 
weapon 0.000000 0.000000 0.000000 0.000000 0.000000 0.000000 10.000000 
back_slider 0.000000 0.000000 0.000000 0.000000 0.000000 0.000000 10.000000 
front_bottom 0.000000 0.000000 0.000000 0.000000 0.000000 0.000000 10.000000 
front_middle_part1 0.000000 0.000000 0.000000 0.000000 0.000000 0.000000 10.000000 
front_middle_part2 0.000000 0.000000 0.000000 0.000000 0.000000 0.000000 10.000000 
front_middle_part3 0.000000 0.000000 0.000000 0.000000 0.000000 0.000000 10.000000 
front_middle_part4 0.000000 0.000000 0.000000 0.000000 0.000000 0.000000 10.000000 
front_top 0.000000 0.000000 0.000000 0.000000 0.000000 0.000000 10.000000 
wing_bottom_left 0.000000 0.000000 0.000000 0.000000 0.000000 0.000000 10.000000 
wing_bottom_right 0.000000 0.000000 0.000000 0.000000 0.000000 0.000000 10.000000 
wing_top_left 0.000000 0.000000 0.000000 0.000000 0.000000 0.000000 10.000000 
wing_top_right 0.000000 0.000000 0.000000 0.000000 0.000000 0.000000 10.000000 
front_bottom_rumble_left 0.000000 0.000000 0.000000 0.000000 0.000000 0.000000 10.000000 
front_bottom_rumble_right 0.000000 0.000000 0.000000 0.000000 0.000000 0.000000 10.000000 
back_rotate_bottom_left 0.000000 0.000000 0.000000 0.000000 0.000000 0.000000 10.000000 
back_rotate_bottom_right 0.000000 0.000000 0.000000 0.000000 0.000000 0.000000 10.000000 
back_rotate_top_left 0.000000 0.000000 0.000000 0.000000 0.000000 0.000000 10.000000 
back_rotate_top_right 0.000000 0.000000 0.000000 0.000000 0.000000 0.000000 10.000000 
front_middle_part3_left 0.000000 0.000000 0.000000 0.000000 0.000000 0.000000 10.000000 
front_middle_part3_right 0.000000 0.000000 0.000000 0.000000 0.000000 0.000000 10.000000 
wing_bottom_left_buckets_1 0.000000 0.000000 0.000000 0.000000 0.000000 0.000000 10.000000 
wing_bottom_left_buckets_2 0.000000 0.000000 0.000000 0.000000 0.000000 0.000000 10.000000 
wing_bottom_left_buckets_3 0.000000 0.000000 0.000000 0.000000 0.000000 0.000000 10.000000 
wing_bottom_right_buckets 0.000000 0.000000 0.000000 0.000000 0.000000 0.000000 10.000000 
wing_top_left_buckets 0.000000 0.000000 0.000000 0.000000 0.000000 0.000000 10.000000 
wing_top_left_buckets_1 0.000000 0.000000 0.000000 0.000000 0.000000 0.000000 10.000000 
wing_top_left_buckets_3 0.000000 0.000000 0.000000 0.000000 0.000000 0.000000 10.000000 
wing_top_right_buckets 0.000000 0.000000 0.000000 0.000000 0.000000 0.000000 10.000000 
#Beginning of Data. Separated by tabs
#Fr	Tx	Ty	Tz	Rx	Ry	Rz	SF
[MASTER]
1 -0.000019 0.000000 0.000000 0.000000 -0.000000 0.000000 0.000019
2 -0.000019 0.000000 0.000000 0.000000 -0.000000 0.000000 0.000019
3 -0.000019 0.000000 0.000000 0.000000 -0.000000 0.000000 0.000019
4 -0.000019 0.000000 0.000000 0.000000 -0.000000 0.000000 0.000019
5 -0.000019 0.000000 0.000000 0.000000 -0.000000 0.000000 0.000019
[weapon]
1 0.000000 -79.014702 86.001579 0.000000 0.000000 -0.000020 116.788681
2 0.000000 -79.014702 86.001579 0.000000 0.000000 -0.000020 116.788681
3 0.000000 -79.014702 86.001579 0.000000 0.000000 -0.000020 116.788681
4 0.000000 -79.014702 86.001579 0.000000 0.000000 -0.000020 116.788681
5 0.000000 -79.014702 86.001579 0.000000 0.000000 -0.000020 116.788681
[back_slider]
1 0.000038 -100.760612 -85.991974 0.000000 -0.000000 0.000000 132.466293
2 0.000000 -59.611431 -85.991974 0.000000 -0.000000 0.000000 104.633369
3 0.000000 16.808472 -85.992126 0.000000 -0.000000 0.000000 87.619461
4 -0.000038 57.957634 -85.991821 0.000000 -0.000000 0.000000 103.699951
5 0.000000 25.596275 -85.991821 0.000000 -0.000000 0.000000 89.720467
[front_bottom]
1 0.000000 739.172546 -219.846481 -0.339591 -0.001665 179.998337 771.173401
2 0.000000 702.322632 -217.713928 3.783300 -0.001605 179.998291 735.293396
3 0.000000 665.472656 -215.581360 7.906190 -0.001541 179.998230 699.520691
4 -0.000019 670.947998 -216.546783 7.906190 -0.001541 179.998230 705.027527
5 -0.000038 676.423340 -217.512207 7.906190 -0.001541 179.998230 710.535034
[front_middle_part1]
1 0.000000 519.313477 -85.992035 179.998795 -61.189507 179.998795 526.384949
2 0.000000 519.313477 -85.992035 179.998810 -65.719360 179.998810 526.384949
3 0.000000 519.313477 -85.992035 179.998810 -69.993340 179.998810 526.384949
4 0.000000 519.313477 -85.992035 179.998825 -74.121460 179.998825 526.384949
5 0.000000 519.313477 -85.992035 179.998825 -78.135628 179.998825 526.384949
[front_middle_part2]
1 0.000000 477.040344 -85.992035 179.930588 88.062248 179.930588 484.728912
2 0.000000 477.040344 -85.992035 0.000000 89.771011 -0.000005 484.728912
3 0.000000 477.040344 -85.992035 0.083702 88.392822 0.083702 484.728912
4 0.000000 477.040344 -85.992035 0.037890 86.449898 0.037890 484.728912
5 0.000000 477.040344 -85.992035 0.024041 84.403709 0.024041 484.728912
[front_middle_part3]
1 0.000038 -232.977249 -85.991974 0.000000 -0.000000 0.000000 248.340546
2 0.000000 -175.936310 -85.992126 0.000000 -0.000000 0.000000 195.827042
3 0.000000 -175.936310 -85.992126 0.000000 -0.000000 0.000000 195.827042
4 0.000000 -175.936310 -85.992126 0.000000 -0.000000 0.000000 195.827042
5 0.000000 -175.936310 -85.992126 0.000000 -0.000000 0.000000 195.827042
[front_middle_part4]
1 0.000000 -443.853668 -85.992035 0.000000 -0.000000 0.000000 452.106964
2 0.000000 -443.853668 -85.992035 0.000000 -0.000000 0.000000 452.106964
3 0.000000 -443.853668 -85.992035 0.000000 -0.000000 0.000000 452.106964
4 0.000000 -443.853668 -85.992035 0.000000 -0.000000 0.000000 452.106964
5 0.000000 -443.853668 -85.992035 0.000000 -0.000000 0.000000 452.106964
[front_top]
1 -0.000038 678.272217 -165.705093 -22.376070 0.001950 0.001306 698.220215
2 0.000000 654.081604 -164.450058 -19.499180 0.001917 0.001355 674.437927
3 0.000000 600.861694 -161.688919 -13.546432 0.001844 0.001452 622.236328
4 -0.000000 547.641724 -158.927765 -7.659964 0.001767 0.001545 570.236328
5 -0.000038 523.450806 -157.672729 -5.000014 0.001731 0.001586 546.682190
[wing_bottom_left]
1 -124.333710 235.191696 -217.766312 161.494247 52.783901 157.201736 343.796692
2 -124.333710 235.191696 -217.766312 167.450867 54.014156 164.619324 343.796692
3 -124.333710 235.191696 -217.766312 175.694687 54.888329 174.744675 343.796692
4 -124.333710 235.191696 -217.766312 178.525665 54.987000 178.199310 343.796692
5 -124.333710 235.191696 -217.766312 179.738678 54.997532 179.683685 343.796692
[wing_bottom_right]
1 124.947586 235.191696 -217.766144 0.000000 54.999989 0.000000 344.019073
2 124.947586 235.191696 -217.766144 0.000000 54.999989 0.000000 344.019073
3 124.947586 235.191696 -217.766144 0.000000 54.999989 0.000000 344.019073
4 124.947586 235.191696 -217.766144 0.000000 54.999989 0.000000 344.019073
5 124.947586 235.191696 -217.766144 0.000000 54.999989 0.000000 344.019073
[wing_top_left]
1 -124.333710 235.191696 62.502743 -159.342682 -52.195583 154.488983 273.277527
2 -124.333710 235.191696 62.502743 -165.418808 -53.652504 162.103210 273.277527
3 -124.333710 235.191696 62.502743 -174.096390 -54.785664 172.787735 273.277527
4 -124.333710 235.191696 62.502743 -177.556900 -54.964275 177.015366 273.277527
5 -124.333710 235.191696 62.502743 -179.435593 -54.998108 179.308456 273.277527
[wing_top_right]
1 131.595657 235.191696 62.502682 -0.000000 -55.000015 0.000000 276.657074
2 131.595657 235.191696 62.502682 -0.000000 -55.000015 0.000000 276.657074
3 131.595657 235.191696 62.502682 -0.000000 -55.000015 0.000000 276.657074
4 131.595657 235.191696 62.502682 -0.000000 -55.000015 0.000000 276.657074
5 131.595657 235.191696 62.502682 -0.000000 -55.000015 0.000000 276.657074
[front_bottom_rumble_left]
1 163.070297 263.743958 -16.969442 -129.881882 18.229330 75.387009 310.549133
2 163.070297 263.743958 -16.969442 -129.881882 18.229330 75.387009 310.549133
3 163.070297 263.743958 -16.969442 -129.881882 18.229330 75.387009 310.549133
4 163.070297 263.743958 -16.969442 -129.881882 18.229330 75.387009 310.549133
5 163.070297 263.743958 -16.969442 -129.881882 18.229330 75.387009 310.549133
[front_bottom_rumble_right]
1 -163.070480 263.743835 -16.969442 -50.118145 18.229362 104.612976 310.549133
2 -163.070480 263.743835 -16.969442 -50.118145 18.229362 104.612976 310.549133
3 -163.070480 263.743835 -16.969442 -50.118145 18.229362 104.612976 310.549133
4 -163.070480 263.743835 -16.969442 -50.118145 18.229362 104.612976 310.549133
5 -163.070480 263.743835 -16.969442 -50.118145 18.229362 104.612976 310.549133
[back_rotate_bottom_left]
1 -38.067558 -195.870575 -38.097980 0.000000 -0.000000 0.000000 203.140045
2 -38.067558 -195.870575 -38.097980 0.000000 -0.000000 0.000000 203.140045
3 -38.067558 -195.870575 -38.097980 0.000000 -0.000000 0.000000 203.140045
4 -38.067558 -195.870575 -38.097980 0.000000 -0.000000 0.000000 203.140045
5 -38.067558 -195.870575 -38.097980 0.000000 -0.000000 0.000000 203.140045
[back_rotate_bottom_right]
1 38.098610 -195.870575 -38.057903 0.000000 -0.000000 0.000000 203.138351
2 38.098610 -195.870575 -38.057903 0.000000 -0.000000 0.000000 203.138351
3 38.098610 -195.870575 -38.057903 0.000000 -0.000000 0.000000 203.138351
4 38.098610 -195.870575 -38.057903 0.000000 -0.000000 0.000000 203.138351
5 38.098610 -195.870575 -38.057903 0.000000 -0.000000 0.000000 203.138351
[back_rotate_top_left]
1 -38.074085 -195.870575 38.105885 0.000000 -0.000000 0.000000 203.142746
2 -38.074085 -195.870575 38.105885 0.000000 -0.000000 0.000000 203.142746
3 -38.074085 -195.870575 38.105885 0.000000 -0.000000 0.000000 203.142746
4 -38.074085 -195.870575 38.105885 0.000000 -0.000000 0.000000 203.142746
5 -38.074085 -195.870575 38.105885 0.000000 -0.000000 0.000000 203.142746
[back_rotate_top_right]
1 38.111603 -195.870575 38.079086 0.000000 -0.000000 0.000000 203.144760
2 38.111603 -195.870575 38.079086 0.000000 -0.000000 0.000000 203.144760
3 38.111603 -195.870575 38.079086 0.000000 -0.000000 0.000000 203.144760
4 38.111603 -195.870575 38.079086 0.000000 -0.000000 0.000000 203.144760
5 38.111603 -195.870575 38.079086 0.000000 -0.000000 0.000000 203.144760
[front_middle_part3_left]
1 -90.176392 364.727051 0.462952 90.000252 0.000106 -44.469864 375.709778
2 -90.176392 364.727051 0.462955 90.000259 0.000054 -22.231707 375.709778
3 -90.176392 364.727051 0.462958 90.002296 -0.000000 0.002347 375.709778
4 -90.176392 364.727051 0.462962 90.001289 0.000010 -0.906916 375.709778
5 -90.176392 364.727051 0.462965 90.001396 0.000006 -0.452281 375.709778
[front_middle_part3_right]
1 91.046051 364.727081 0.046265 -90.000000 0.000003 180.000000 375.919159
2 91.046051 364.727081 0.046265 -90.000000 0.000003 180.000000 375.919159
3 91.046051 364.727081 0.046265 -90.000000 0.000003 180.000000 375.919159
4 91.046051 364.727081 0.046265 -90.000000 0.000003 180.000000 375.919159
5 91.046051 364.727081 0.046265 -90.000000 0.000003 180.000000 375.919159
[wing_bottom_left_buckets_1]
1 -47.610477 -288.454193 -9.889640 -0.000027 0.000020 -0.000035 292.524170
2 -47.610477 -288.454193 -9.889640 -0.000027 0.000020 -0.000035 292.524170
3 -47.610477 -288.454193 -9.889640 -0.000027 0.000020 -0.000035 292.524170
4 -47.610477 -288.454193 -9.889640 -0.000027 0.000020 -0.000035 292.524170
5 -47.610477 -288.454193 -9.889640 -0.000027 0.000020 -0.000035 292.524170
[wing_bottom_left_buckets_2]
1 -47.610565 -358.672546 -9.889595 -0.000031 -0.000003 -0.000031 361.953827
2 -47.610565 -358.672546 -9.889595 -0.000031 -0.000003 -0.000031 361.953827
3 -47.610565 -358.672546 -9.889595 -0.000031 -0.000003 -0.000031 361.953827
4 -47.610565 -358.672546 -9.889595 -0.000031 -0.000003 -0.000031 361.953827
5 -47.610565 -358.672546 -9.889595 -0.000031 -0.000003 -0.000031 361.953827
[wing_bottom_left_buckets_3]
1 -47.610672 -428.104828 -9.889513 -0.000027 0.000020 -0.000035 430.857635
2 -47.610672 -428.104828 -9.889513 -0.000027 0.000020 -0.000035 430.857635
3 -47.610672 -428.104828 -9.889513 -0.000027 0.000020 -0.000035 430.857635
4 -47.610672 -428.104828 -9.889513 -0.000027 0.000020 -0.000035 430.857635
5 -47.610672 -428.104828 -9.889513 -0.000027 0.000020 -0.000035 430.857635
[wing_bottom_right_buckets]
1 -47.962635 -358.672546 9.386807 0.000027 0.000061 -0.000035 361.986908
2 -47.962635 -358.672546 9.386807 0.000027 0.000061 -0.000035 361.986908
3 -47.962635 -358.672546 9.386807 0.000027 0.000061 -0.000035 361.986908
4 -47.962635 -358.672546 9.386807 0.000027 0.000061 -0.000035 361.986908
5 -47.962635 -358.672546 9.386807 0.000027 0.000061 -0.000035 361.986908
[wing_top_left_buckets]
1 -45.484066 -358.586609 10.598831 0.001951 16.028444 0.001951 361.615112
2 -45.484066 -358.586609 10.598831 0.001914 14.361937 0.001914 361.615112
3 -45.484066 -358.586609 10.598831 0.001833 10.386979 0.001833 361.615112
4 -45.484066 -358.586609 10.598831 0.001748 5.642018 0.001748 361.615112
5 -45.484066 -358.586609 10.598831 0.001684 1.668414 0.001684 361.615112
[wing_top_left_buckets_1]
1 -45.484005 -287.973450 10.598879 0.000027 0.000000 -0.000035 291.735931
2 -45.484005 -287.973450 10.598879 0.000027 0.000000 -0.000035 291.735931
3 -45.484005 -287.973450 10.598879 0.000027 0.000000 -0.000035 291.735931
4 -45.484005 -287.973450 10.598879 0.000027 0.000000 -0.000035 291.735931
5 -45.484005 -287.973450 10.598879 0.000027 0.000000 -0.000035 291.735931
[wing_top_left_buckets_3]
1 -45.484154 -426.601654 10.598794 0.000027 0.000000 -0.000035 429.150452
2 -45.484154 -426.601654 10.598794 0.000027 0.000000 -0.000035 429.150452
3 -45.484154 -426.601654 10.598794 0.000027 0.000000 -0.000035 429.150452
4 -45.484154 -426.601654 10.598794 0.000027 0.000000 -0.000035 429.150452
5 -45.484154 -426.601654 10.598794 0.000027 0.000000 -0.000035 429.150452
[wing_top_right_buckets]
1 -46.906902 -358.586700 -9.449236 -0.000044 -0.000038 -0.000035 361.765076
2 -46.906902 -358.586700 -9.449236 -0.000044 -0.000038 -0.000035 361.765076
3 -46.906902 -358.586700 -9.449236 -0.000044 -0.000038 -0.000035 361.765076
4 -46.906902 -358.586700 -9.449236 -0.000044 -0.000038 -0.000035 361.765076
5 -46.906902 -358.586700 -9.449236 -0.000044 -0.000038 -0.000035 361.765076
